<svg xmlns="http://www.w3.org/2000/svg" xmlns:xlink="http://www.w3.org/1999/xlink" contentStyleType="text/css" height="851px" preserveAspectRatio="none" style="width:2975px;height:851px;background:#FFFFFF;" version="1.1" viewBox="0 0 2975 851" width="2975px" zoomAndPan="magnify"><defs/><g><!--class Main--><g id="elem_Main"><rect codeLine="5" fill="#F1F1F1" height="66.6211" id="Main" rx="2.5" ry="2.5" style="stroke:#181818;stroke-width:0.5;" width="172.6719" x="517.12" y="25.5"/><ellipse cx="584.0336" cy="41.5" fill="#ADD1B2" rx="11" ry="11" style="stroke:#181818;stroke-width:1.0;"/><path d="M586.7992,37.375 Q586.9554,37.1563 587.1429,37.0469 Q587.3304,36.9375 587.5492,36.9375 Q587.9242,36.9375 588.1586,37.2031 Q588.3929,37.4531 588.3929,38.0625 L588.3929,39.5156 Q588.3929,40.125 588.1586,40.3906 Q587.9242,40.6563 587.5492,40.6563 Q587.2054,40.6563 587.0023,40.4531 Q586.7992,40.2656 586.6898,39.75 Q586.6429,39.3906 586.4554,39.2031 Q586.1273,38.8281 585.5179,38.6094 Q584.9086,38.3906 584.2836,38.3906 Q583.5179,38.3906 582.8773,38.7188 Q582.2523,39.0469 581.7523,39.7969 Q581.2679,40.5469 581.2679,41.5781 L581.2679,42.6719 Q581.2679,43.9063 582.1586,44.7344 Q583.0492,45.5469 584.6429,45.5469 Q585.5804,45.5469 586.2367,45.2969 Q586.6273,45.1406 587.0492,44.7031 Q587.3148,44.4375 587.4554,44.3594 Q587.6117,44.2813 587.8148,44.2813 Q588.1429,44.2813 588.3929,44.5469 Q588.6586,44.7969 588.6586,45.1406 Q588.6586,45.4844 588.3148,45.8906 Q587.8148,46.4688 587.0179,46.7969 Q585.9398,47.25 584.6429,47.25 Q583.1273,47.25 581.9242,46.625 Q580.9398,46.125 580.2523,45.0625 Q579.5648,43.9844 579.5648,42.7031 L579.5648,41.5469 Q579.5648,40.2188 580.1742,39.0781 Q580.7992,37.9219 581.8929,37.3125 Q582.9867,36.6875 584.2211,36.6875 Q584.9554,36.6875 585.5961,36.8594 Q586.2523,37.0156 586.7992,37.375 Z " fill="#000000"/><text fill="#000000" font-family="sans-serif" font-size="14" lengthAdjust="spacing" textLength="30.3447" x="604.5336" y="47.2969">Main</text><line style="stroke:#181818;stroke-width:0.5;" x1="518.12" x2="688.7919" y1="57.5" y2="57.5"/><line style="stroke:#181818;stroke-width:0.5;" x1="518.12" x2="688.7919" y1="65.5" y2="65.5"/><text fill="#000000" font-family="sans-serif" font-size="14" lengthAdjust="spacing" text-decoration="underline" textLength="160.6719" x="523.12" y="84.6074">+main(args: String[]): void</text></g><!--class ChatThread--><g id="elem_ChatThread"><rect codeLine="9" fill="#F1F1F1" height="85.2422" id="ChatThread" rx="2.5" ry="2.5" style="stroke:#181818;stroke-width:0.5;" width="547.7393" x="2207.62" y="236.5"/><ellipse cx="2440.2743" cy="252.5" fill="#ADD1B2" rx="11" ry="11" style="stroke:#181818;stroke-width:1.0;"/><path d="M2443.0399,248.375 Q2443.1962,248.1563 2443.3837,248.0469 Q2443.5712,247.9375 2443.7899,247.9375 Q2444.1649,247.9375 2444.3993,248.2031 Q2444.6337,248.4531 2444.6337,249.0625 L2444.6337,250.5156 Q2444.6337,251.125 2444.3993,251.3906 Q2444.1649,251.6563 2443.7899,251.6563 Q2443.4462,251.6563 2443.243,251.4531 Q2443.0399,251.2656 2442.9305,250.75 Q2442.8837,250.3906 2442.6962,250.2031 Q2442.368,249.8281 2441.7587,249.6094 Q2441.1493,249.3906 2440.5243,249.3906 Q2439.7587,249.3906 2439.118,249.7188 Q2438.493,250.0469 2437.993,250.7969 Q2437.5087,251.5469 2437.5087,252.5781 L2437.5087,253.6719 Q2437.5087,254.9063 2438.3993,255.7344 Q2439.2899,256.5469 2440.8837,256.5469 Q2441.8212,256.5469 2442.4774,256.2969 Q2442.868,256.1406 2443.2899,255.7031 Q2443.5555,255.4375 2443.6962,255.3594 Q2443.8524,255.2813 2444.0555,255.2813 Q2444.3837,255.2813 2444.6337,255.5469 Q2444.8993,255.7969 2444.8993,256.1406 Q2444.8993,256.4844 2444.5555,256.8906 Q2444.0555,257.4688 2443.2587,257.7969 Q2442.1805,258.25 2440.8837,258.25 Q2439.368,258.25 2438.1649,257.625 Q2437.1805,257.125 2436.493,256.0625 Q2435.8055,254.9844 2435.8055,253.7031 L2435.8055,252.5469 Q2435.8055,251.2188 2436.4149,250.0781 Q2437.0399,248.9219 2438.1337,248.3125 Q2439.2274,247.6875 2440.4618,247.6875 Q2441.1962,247.6875 2441.8368,247.8594 Q2442.493,248.0156 2443.0399,248.375 Z " fill="#000000"/><text fill="#000000" font-family="sans-serif" font-size="14" lengthAdjust="spacing" textLength="73.9307" x="2460.7743" y="258.2969">ChatThread</text><line style="stroke:#181818;stroke-width:0.5;" x1="2208.62" x2="2754.3593" y1="268.5" y2="268.5"/><line style="stroke:#181818;stroke-width:0.5;" x1="2208.62" x2="2754.3593" y1="276.5" y2="276.5"/><text fill="#000000" font-family="sans-serif" font-size="14" lengthAdjust="spacing" textLength="535.7393" x="2213.62" y="295.6074">+ChatThread(sender: UniversityStudent, receiver: UniversityStudent, message: String)</text><text fill="#000000" font-family="sans-serif" font-size="14" lengthAdjust="spacing" textLength="71.1963" x="2213.62" y="314.2285">+run(): void</text></g><!--class Runnable--><g id="elem_Runnable"><rect fill="#F1F1F1" height="48" id="Runnable" rx="2.5" ry="2.5" style="stroke:#181818;stroke-width:0.5;" width="91.9375" x="1964.62" y="35"/><ellipse cx="1979.62" cy="51" fill="#B4A7E5" rx="11" ry="11" style="stroke:#181818;stroke-width:1.0;"/><path d="M1980.5731,47.6406 L1980.5731,54.2969 L1982.2919,54.2969 Q1982.9013,54.2969 1983.1669,54.5313 Q1983.4325,54.7656 1983.4325,55.1563 Q1983.4325,55.5313 1983.1669,55.7656 Q1982.9013,56 1982.2919,56 L1977.1513,56 Q1976.5419,56 1976.2763,55.7656 Q1976.0106,55.5313 1976.0106,55.1406 Q1976.0106,54.7656 1976.2763,54.5313 Q1976.5419,54.2969 1977.1513,54.2969 L1978.87,54.2969 L1978.87,47.6406 L1977.1513,47.6406 Q1976.5419,47.6406 1976.2763,47.4063 Q1976.0106,47.1719 1976.0106,46.7813 Q1976.0106,46.4063 1976.2763,46.1719 Q1976.5419,45.9375 1977.1513,45.9375 L1982.2919,45.9375 Q1982.9013,45.9375 1983.1669,46.1719 Q1983.4325,46.4063 1983.4325,46.7813 Q1983.4325,47.1719 1983.1669,47.4063 Q1982.9013,47.6406 1982.2919,47.6406 L1980.5731,47.6406 Z " fill="#000000"/><text fill="#000000" font-family="sans-serif" font-size="14" font-style="italic" lengthAdjust="spacing" textLength="59.9375" x="1993.62" y="56.7969">Runnable</text><line style="stroke:#181818;stroke-width:0.5;" x1="1965.62" x2="2055.5575" y1="67" y2="67"/><line style="stroke:#181818;stroke-width:0.5;" x1="1965.62" x2="2055.5575" y1="75" y2="75"/></g><!--class ChatPair--><g id="elem_ChatPair"><rect codeLine="13" fill="#F1F1F1" height="103.8633" id="ChatPair" rx="2.5" ry="2.5" style="stroke:#181818;stroke-width:0.5;" width="419.3398" x="2549.12" y="7"/><ellipse cx="2727.3055" cy="23" fill="#ADD1B2" rx="11" ry="11" style="stroke:#181818;stroke-width:1.0;"/><path d="M2730.0712,18.875 Q2730.2274,18.6563 2730.4149,18.5469 Q2730.6024,18.4375 2730.8212,18.4375 Q2731.1962,18.4375 2731.4305,18.7031 Q2731.6649,18.9531 2731.6649,19.5625 L2731.6649,21.0156 Q2731.6649,21.625 2731.4305,21.8906 Q2731.1962,22.1563 2730.8212,22.1563 Q2730.4774,22.1563 2730.2743,21.9531 Q2730.0712,21.7656 2729.9618,21.25 Q2729.9149,20.8906 2729.7274,20.7031 Q2729.3993,20.3281 2728.7899,20.1094 Q2728.1805,19.8906 2727.5555,19.8906 Q2726.7899,19.8906 2726.1493,20.2188 Q2725.5243,20.5469 2725.0243,21.2969 Q2724.5399,22.0469 2724.5399,23.0781 L2724.5399,24.1719 Q2724.5399,25.4063 2725.4305,26.2344 Q2726.3212,27.0469 2727.9149,27.0469 Q2728.8524,27.0469 2729.5087,26.7969 Q2729.8993,26.6406 2730.3212,26.2031 Q2730.5868,25.9375 2730.7274,25.8594 Q2730.8837,25.7813 2731.0868,25.7813 Q2731.4149,25.7813 2731.6649,26.0469 Q2731.9305,26.2969 2731.9305,26.6406 Q2731.9305,26.9844 2731.5868,27.3906 Q2731.0868,27.9688 2730.2899,28.2969 Q2729.2118,28.75 2727.9149,28.75 Q2726.3993,28.75 2725.1962,28.125 Q2724.2118,27.625 2723.5243,26.5625 Q2722.8368,25.4844 2722.8368,24.2031 L2722.8368,23.0469 Q2722.8368,21.7188 2723.4462,20.5781 Q2724.0712,19.4219 2725.1649,18.8125 Q2726.2587,18.1875 2727.493,18.1875 Q2728.2274,18.1875 2728.868,18.3594 Q2729.5243,18.5156 2730.0712,18.875 Z " fill="#000000"/><text fill="#000000" font-family="sans-serif" font-size="14" lengthAdjust="spacing" textLength="54.4688" x="2747.8055" y="28.7969">ChatPair</text><line style="stroke:#181818;stroke-width:0.5;" x1="2550.12" x2="2967.4598" y1="39" y2="39"/><text fill="#000000" font-family="sans-serif" font-size="14" lengthAdjust="spacing" textLength="164.9648" x="2555.12" y="58.1074">-sender: UniversityStudent</text><text fill="#000000" font-family="sans-serif" font-size="14" lengthAdjust="spacing" textLength="171.9512" x="2555.12" y="76.7285">-receiver: UniversityStudent</text><line style="stroke:#181818;stroke-width:0.5;" x1="2550.12" x2="2967.4598" y1="84.2422" y2="84.2422"/><text fill="#000000" font-family="sans-serif" font-size="14" lengthAdjust="spacing" textLength="407.3398" x="2555.12" y="103.3496">+ChatPair(sender: UniversityStudent, receiver: UniversityStudent)</text></g><!--class Chat--><g id="elem_Chat"><rect codeLine="18" fill="#F1F1F1" height="103.8633" id="Chat" rx="2.5" ry="2.5" style="stroke:#181818;stroke-width:0.5;" width="244.2852" x="2269.62" y="7"/><ellipse cx="2372.7264" cy="23" fill="#ADD1B2" rx="11" ry="11" style="stroke:#181818;stroke-width:1.0;"/><path d="M2375.4921,18.875 Q2375.6483,18.6563 2375.8358,18.5469 Q2376.0233,18.4375 2376.2421,18.4375 Q2376.6171,18.4375 2376.8514,18.7031 Q2377.0858,18.9531 2377.0858,19.5625 L2377.0858,21.0156 Q2377.0858,21.625 2376.8514,21.8906 Q2376.6171,22.1563 2376.2421,22.1563 Q2375.8983,22.1563 2375.6952,21.9531 Q2375.4921,21.7656 2375.3827,21.25 Q2375.3358,20.8906 2375.1483,20.7031 Q2374.8202,20.3281 2374.2108,20.1094 Q2373.6014,19.8906 2372.9764,19.8906 Q2372.2108,19.8906 2371.5702,20.2188 Q2370.9452,20.5469 2370.4452,21.2969 Q2369.9608,22.0469 2369.9608,23.0781 L2369.9608,24.1719 Q2369.9608,25.4063 2370.8514,26.2344 Q2371.7421,27.0469 2373.3358,27.0469 Q2374.2733,27.0469 2374.9296,26.7969 Q2375.3202,26.6406 2375.7421,26.2031 Q2376.0077,25.9375 2376.1483,25.8594 Q2376.3046,25.7813 2376.5077,25.7813 Q2376.8358,25.7813 2377.0858,26.0469 Q2377.3514,26.2969 2377.3514,26.6406 Q2377.3514,26.9844 2377.0077,27.3906 Q2376.5077,27.9688 2375.7108,28.2969 Q2374.6327,28.75 2373.3358,28.75 Q2371.8202,28.75 2370.6171,28.125 Q2369.6327,27.625 2368.9452,26.5625 Q2368.2577,25.4844 2368.2577,24.2031 L2368.2577,23.0469 Q2368.2577,21.7188 2368.8671,20.5781 Q2369.4921,19.4219 2370.5858,18.8125 Q2371.6796,18.1875 2372.9139,18.1875 Q2373.6483,18.1875 2374.2889,18.3594 Q2374.9452,18.5156 2375.4921,18.875 Z " fill="#000000"/><text fill="#000000" font-family="sans-serif" font-size="14" lengthAdjust="spacing" textLength="29.5723" x="2393.2264" y="28.7969">Chat</text><line style="stroke:#181818;stroke-width:0.5;" x1="2270.62" x2="2512.9052" y1="39" y2="39"/><text fill="#000000" font-family="sans-serif" font-size="14" lengthAdjust="spacing" textLength="223.3301" x="2275.62" y="58.1074">-private chatMessages: List&lt;String&gt;</text><line style="stroke:#181818;stroke-width:0.5;" x1="2270.62" x2="2512.9052" y1="65.6211" y2="65.6211"/><text fill="#000000" font-family="sans-serif" font-size="14" lengthAdjust="spacing" textLength="47.0723" x="2275.62" y="84.7285">+Chat()</text><text fill="#000000" font-family="sans-serif" font-size="14" lengthAdjust="spacing" textLength="232.2852" x="2275.62" y="103.3496">+addMessage(message: String): void</text></g><!--class DataParser--><g id="elem_DataParser"><rect codeLine="24" fill="#F1F1F1" height="66.6211" id="DataParser" rx="2.5" ry="2.5" style="stroke:#181818;stroke-width:0.5;" width="497.96" x="1873.62" y="759.5"/><ellipse cx="2082.9467" cy="775.5" fill="#ADD1B2" rx="11" ry="11" style="stroke:#181818;stroke-width:1.0;"/><path d="M2085.7123,771.375 Q2085.8685,771.1563 2086.056,771.0469 Q2086.2435,770.9375 2086.4623,770.9375 Q2086.8373,770.9375 2087.0717,771.2031 Q2087.306,771.4531 2087.306,772.0625 L2087.306,773.5156 Q2087.306,774.125 2087.0717,774.3906 Q2086.8373,774.6563 2086.4623,774.6563 Q2086.1185,774.6563 2085.9154,774.4531 Q2085.7123,774.2656 2085.6029,773.75 Q2085.556,773.3906 2085.3685,773.2031 Q2085.0404,772.8281 2084.431,772.6094 Q2083.8217,772.3906 2083.1967,772.3906 Q2082.431,772.3906 2081.7904,772.7188 Q2081.1654,773.0469 2080.6654,773.7969 Q2080.181,774.5469 2080.181,775.5781 L2080.181,776.6719 Q2080.181,777.9063 2081.0717,778.7344 Q2081.9623,779.5469 2083.556,779.5469 Q2084.4935,779.5469 2085.1498,779.2969 Q2085.5404,779.1406 2085.9623,778.7031 Q2086.2279,778.4375 2086.3685,778.3594 Q2086.5248,778.2813 2086.7279,778.2813 Q2087.056,778.2813 2087.306,778.5469 Q2087.5717,778.7969 2087.5717,779.1406 Q2087.5717,779.4844 2087.2279,779.8906 Q2086.7279,780.4688 2085.931,780.7969 Q2084.8529,781.25 2083.556,781.25 Q2082.0404,781.25 2080.8373,780.625 Q2079.8529,780.125 2079.1654,779.0625 Q2078.4779,777.9844 2078.4779,776.7031 L2078.4779,775.5469 Q2078.4779,774.2188 2079.0873,773.0781 Q2079.7123,771.9219 2080.806,771.3125 Q2081.8998,770.6875 2083.1342,770.6875 Q2083.8685,770.6875 2084.5092,770.8594 Q2085.1654,771.0156 2085.7123,771.375 Z " fill="#000000"/><text fill="#000000" font-family="sans-serif" font-size="14" lengthAdjust="spacing" textLength="70.8066" x="2103.4467" y="781.2969">DataParser</text><line style="stroke:#181818;stroke-width:0.5;" x1="1874.62" x2="2370.58" y1="791.5" y2="791.5"/><line style="stroke:#181818;stroke-width:0.5;" x1="1874.62" x2="2370.58" y1="799.5" y2="799.5"/><text fill="#000000" font-family="sans-serif" font-size="14" lengthAdjust="spacing" text-decoration="underline" textLength="485.96" x="1879.62" y="818.6074">+parseStudents(filename: String): List&lt;UniversityStudent&gt; throws IOException</text></g><!--class FriendRequestThread--><g id="elem_FriendRequestThread"><rect codeLine="28" fill="#F1F1F1" height="122.4844" id="FriendRequestThread" rx="2.5" ry="2.5" style="stroke:#181818;stroke-width:0.5;" width="501.0566" x="1671.12" y="218"/><ellipse cx="1849.3055" cy="234" fill="#ADD1B2" rx="11" ry="11" style="stroke:#181818;stroke-width:1.0;"/><path d="M1852.0712,229.875 Q1852.2274,229.6563 1852.4149,229.5469 Q1852.6024,229.4375 1852.8212,229.4375 Q1853.1962,229.4375 1853.4305,229.7031 Q1853.6649,229.9531 1853.6649,230.5625 L1853.6649,232.0156 Q1853.6649,232.625 1853.4305,232.8906 Q1853.1962,233.1563 1852.8212,233.1563 Q1852.4774,233.1563 1852.2743,232.9531 Q1852.0712,232.7656 1851.9618,232.25 Q1851.9149,231.8906 1851.7274,231.7031 Q1851.3993,231.3281 1850.7899,231.1094 Q1850.1805,230.8906 1849.5555,230.8906 Q1848.7899,230.8906 1848.1493,231.2188 Q1847.5243,231.5469 1847.0243,232.2969 Q1846.5399,233.0469 1846.5399,234.0781 L1846.5399,235.1719 Q1846.5399,236.4063 1847.4305,237.2344 Q1848.3212,238.0469 1849.9149,238.0469 Q1850.8524,238.0469 1851.5087,237.7969 Q1851.8993,237.6406 1852.3212,237.2031 Q1852.5868,236.9375 1852.7274,236.8594 Q1852.8837,236.7813 1853.0868,236.7813 Q1853.4149,236.7813 1853.6649,237.0469 Q1853.9305,237.2969 1853.9305,237.6406 Q1853.9305,237.9844 1853.5868,238.3906 Q1853.0868,238.9688 1852.2899,239.2969 Q1851.2118,239.75 1849.9149,239.75 Q1848.3993,239.75 1847.1962,239.125 Q1846.2118,238.625 1845.5243,237.5625 Q1844.8368,236.4844 1844.8368,235.2031 L1844.8368,234.0469 Q1844.8368,232.7188 1845.4462,231.5781 Q1846.0712,230.4219 1847.1649,229.8125 Q1848.2587,229.1875 1849.493,229.1875 Q1850.2274,229.1875 1850.868,229.3594 Q1851.5243,229.5156 1852.0712,229.875 Z " fill="#000000"/><text fill="#000000" font-family="sans-serif" font-size="14" lengthAdjust="spacing" textLength="136.1855" x="1869.8055" y="239.7969">FriendRequestThread</text><line style="stroke:#181818;stroke-width:0.5;" x1="1672.12" x2="2171.1766" y1="250" y2="250"/><text fill="#000000" font-family="sans-serif" font-size="14" lengthAdjust="spacing" text-decoration="underline" textLength="363.3984" x="1677.12" y="269.1074">-friends: Map&lt;UniversityStudent, List&lt;UniversityStudent&gt;&gt;</text><line style="stroke:#181818;stroke-width:0.5;" x1="1672.12" x2="2171.1766" y1="276.6211" y2="276.6211"/><text fill="#000000" font-family="sans-serif" font-size="14" lengthAdjust="spacing" textLength="489.0566" x="1677.12" y="295.7285">+FriendRequestThread(sender: UniversityStudent, receiver: UniversityStudent)</text><text fill="#000000" font-family="sans-serif" font-size="14" lengthAdjust="spacing" textLength="71.1963" x="1677.12" y="314.3496">+run(): void</text><text fill="#000000" font-family="sans-serif" font-size="14" lengthAdjust="spacing" text-decoration="underline" textLength="400.3672" x="1677.12" y="332.9707">+areFriends(a: UniversityStudent, b: UniversityStudent): boolean</text></g><!--class GaleShapley--><g id="elem_GaleShapley"><rect codeLine="35" fill="#F1F1F1" height="103.8633" id="GaleShapley" rx="2.5" ry="2.5" style="stroke:#181818;stroke-width:0.5;" width="441.1533" x="1397.12" y="741"/><ellipse cx="1573.3641" cy="757" fill="#ADD1B2" rx="11" ry="11" style="stroke:#181818;stroke-width:1.0;"/><path d="M1576.1298,752.875 Q1576.286,752.6563 1576.4735,752.5469 Q1576.661,752.4375 1576.8798,752.4375 Q1577.2548,752.4375 1577.4891,752.7031 Q1577.7235,752.9531 1577.7235,753.5625 L1577.7235,755.0156 Q1577.7235,755.625 1577.4891,755.8906 Q1577.2548,756.1563 1576.8798,756.1563 Q1576.536,756.1563 1576.3329,755.9531 Q1576.1298,755.7656 1576.0204,755.25 Q1575.9735,754.8906 1575.786,754.7031 Q1575.4579,754.3281 1574.8485,754.1094 Q1574.2391,753.8906 1573.6141,753.8906 Q1572.8485,753.8906 1572.2079,754.2188 Q1571.5829,754.5469 1571.0829,755.2969 Q1570.5985,756.0469 1570.5985,757.0781 L1570.5985,758.1719 Q1570.5985,759.4063 1571.4891,760.2344 Q1572.3798,761.0469 1573.9735,761.0469 Q1574.911,761.0469 1575.5673,760.7969 Q1575.9579,760.6406 1576.3798,760.2031 Q1576.6454,759.9375 1576.786,759.8594 Q1576.9423,759.7813 1577.1454,759.7813 Q1577.4735,759.7813 1577.7235,760.0469 Q1577.9891,760.2969 1577.9891,760.6406 Q1577.9891,760.9844 1577.6454,761.3906 Q1577.1454,761.9688 1576.3485,762.2969 Q1575.2704,762.75 1573.9735,762.75 Q1572.4579,762.75 1571.2548,762.125 Q1570.2704,761.625 1569.5829,760.5625 Q1568.8954,759.4844 1568.8954,758.2031 L1568.8954,757.0469 Q1568.8954,755.7188 1569.5048,754.5781 Q1570.1298,753.4219 1571.2235,752.8125 Q1572.3173,752.1875 1573.5516,752.1875 Q1574.286,752.1875 1574.9266,752.3594 Q1575.5829,752.5156 1576.1298,752.875 Z " fill="#000000"/><text fill="#000000" font-family="sans-serif" font-size="14" lengthAdjust="spacing" textLength="80.165" x="1593.8641" y="762.7969">GaleShapley</text><line style="stroke:#181818;stroke-width:0.5;" x1="1398.12" x2="1837.2733" y1="773" y2="773"/><text fill="#000000" font-family="sans-serif" font-size="14" lengthAdjust="spacing" text-decoration="underline" textLength="378.1572" x="1403.12" y="792.1074">-roommatePairs: Map&lt;UniversityStudent, UniversityStudent&gt;</text><line style="stroke:#181818;stroke-width:0.5;" x1="1398.12" x2="1837.2733" y1="799.6211" y2="799.6211"/><text fill="#000000" font-family="sans-serif" font-size="14" lengthAdjust="spacing" text-decoration="underline" textLength="375.457" x="1403.12" y="818.7285">+assignRoommates(students: List&lt;UniversityStudent&gt;): void</text><text fill="#000000" font-family="sans-serif" font-size="14" lengthAdjust="spacing" text-decoration="underline" textLength="429.1533" x="1403.12" y="837.3496">+areRoommates(a: UniversityStudent, b: UniversityStudent): boolean</text></g><!--class PodFormation--><g id="elem_PodFormation"><rect codeLine="41" fill="#F1F1F1" height="122.4844" id="PodFormation" rx="2.5" ry="2.5" style="stroke:#181818;stroke-width:0.5;" width="248.1885" x="84.62" y="218"/><ellipse cx="160.4989" cy="234" fill="#ADD1B2" rx="11" ry="11" style="stroke:#181818;stroke-width:1.0;"/><path d="M163.2645,229.875 Q163.4208,229.6563 163.6083,229.5469 Q163.7958,229.4375 164.0145,229.4375 Q164.3895,229.4375 164.6239,229.7031 Q164.8583,229.9531 164.8583,230.5625 L164.8583,232.0156 Q164.8583,232.625 164.6239,232.8906 Q164.3895,233.1563 164.0145,233.1563 Q163.6708,233.1563 163.4677,232.9531 Q163.2645,232.7656 163.1552,232.25 Q163.1083,231.8906 162.9208,231.7031 Q162.5927,231.3281 161.9833,231.1094 Q161.3739,230.8906 160.7489,230.8906 Q159.9833,230.8906 159.3427,231.2188 Q158.7177,231.5469 158.2177,232.2969 Q157.7333,233.0469 157.7333,234.0781 L157.7333,235.1719 Q157.7333,236.4063 158.6239,237.2344 Q159.5145,238.0469 161.1083,238.0469 Q162.0458,238.0469 162.702,237.7969 Q163.0927,237.6406 163.5145,237.2031 Q163.7802,236.9375 163.9208,236.8594 Q164.077,236.7813 164.2802,236.7813 Q164.6083,236.7813 164.8583,237.0469 Q165.1239,237.2969 165.1239,237.6406 Q165.1239,237.9844 164.7802,238.3906 Q164.2802,238.9688 163.4833,239.2969 Q162.4052,239.75 161.1083,239.75 Q159.5927,239.75 158.3895,239.125 Q157.4052,238.625 156.7177,237.5625 Q156.0302,236.4844 156.0302,235.2031 L156.0302,234.0469 Q156.0302,232.7188 156.6395,231.5781 Q157.2645,230.4219 158.3583,229.8125 Q159.452,229.1875 160.6864,229.1875 Q161.4208,229.1875 162.0614,229.3594 Q162.7177,229.5156 163.2645,229.875 Z " fill="#000000"/><text fill="#000000" font-family="sans-serif" font-size="14" lengthAdjust="spacing" textLength="87.9307" x="180.9989" y="239.7969">PodFormation</text><line style="stroke:#181818;stroke-width:0.5;" x1="85.62" x2="331.8085" y1="250" y2="250"/><text fill="#000000" font-family="sans-serif" font-size="14" lengthAdjust="spacing" textLength="161.8818" x="90.62" y="269.1074">-podGraph: StudentGraph</text><text fill="#000000" font-family="sans-serif" font-size="14" lengthAdjust="spacing" textLength="168.1094" x="90.62" y="287.7285">-pods: List&lt;StudentGraph&gt;</text><line style="stroke:#181818;stroke-width:0.5;" x1="85.62" x2="331.8085" y1="295.2422" y2="295.2422"/><text fill="#000000" font-family="sans-serif" font-size="14" lengthAdjust="spacing" textLength="236.1885" x="90.62" y="314.3496">+PodFormation(graph: StudentGraph)</text><text fill="#000000" font-family="sans-serif" font-size="14" lengthAdjust="spacing" textLength="184.0303" x="90.62" y="332.9707">+formPods(podSize: int): void</text></g><!--class ReferralPathFinder--><g id="elem_ReferralPathFinder"><rect codeLine="48" fill="#F1F1F1" height="103.8633" id="ReferralPathFinder" rx="2.5" ry="2.5" style="stroke:#181818;stroke-width:0.5;" width="423.2363" x="787.12" y="227"/><ellipse cx="935.3505" cy="243" fill="#ADD1B2" rx="11" ry="11" style="stroke:#181818;stroke-width:1.0;"/><path d="M938.1161,238.875 Q938.2723,238.6563 938.4598,238.5469 Q938.6473,238.4375 938.8661,238.4375 Q939.2411,238.4375 939.4755,238.7031 Q939.7098,238.9531 939.7098,239.5625 L939.7098,241.0156 Q939.7098,241.625 939.4755,241.8906 Q939.2411,242.1563 938.8661,242.1563 Q938.5223,242.1563 938.3192,241.9531 Q938.1161,241.7656 938.0067,241.25 Q937.9598,240.8906 937.7723,240.7031 Q937.4442,240.3281 936.8348,240.1094 Q936.2255,239.8906 935.6005,239.8906 Q934.8348,239.8906 934.1942,240.2188 Q933.5692,240.5469 933.0692,241.2969 Q932.5848,242.0469 932.5848,243.0781 L932.5848,244.1719 Q932.5848,245.4063 933.4755,246.2344 Q934.3661,247.0469 935.9598,247.0469 Q936.8973,247.0469 937.5536,246.7969 Q937.9442,246.6406 938.3661,246.2031 Q938.6317,245.9375 938.7723,245.8594 Q938.9286,245.7813 939.1317,245.7813 Q939.4598,245.7813 939.7098,246.0469 Q939.9755,246.2969 939.9755,246.6406 Q939.9755,246.9844 939.6317,247.3906 Q939.1317,247.9688 938.3348,248.2969 Q937.2567,248.75 935.9598,248.75 Q934.4442,248.75 933.2411,248.125 Q932.2567,247.625 931.5692,246.5625 Q930.8817,245.4844 930.8817,244.2031 L930.8817,243.0469 Q930.8817,241.7188 931.4911,240.5781 Q932.1161,239.4219 933.2098,238.8125 Q934.3036,238.1875 935.538,238.1875 Q936.2723,238.1875 936.913,238.3594 Q937.5692,238.5156 938.1161,238.875 Z " fill="#000000"/><text fill="#000000" font-family="sans-serif" font-size="14" lengthAdjust="spacing" textLength="118.2754" x="955.8505" y="248.7969">ReferralPathFinder</text><line style="stroke:#181818;stroke-width:0.5;" x1="788.12" x2="1209.3563" y1="259" y2="259"/><text fill="#000000" font-family="sans-serif" font-size="14" lengthAdjust="spacing" textLength="182.8682" x="793.12" y="278.1074">-referralGraph: StudentGraph</text><line style="stroke:#181818;stroke-width:0.5;" x1="788.12" x2="1209.3563" y1="285.6211" y2="285.6211"/><text fill="#000000" font-family="sans-serif" font-size="14" lengthAdjust="spacing" textLength="266.5332" x="793.12" y="304.7285">+ReferralPathFinder(graph: StudentGraph)</text><text fill="#000000" font-family="sans-serif" font-size="14" lengthAdjust="spacing" textLength="411.2363" x="793.12" y="323.3496">+findReferralPath(start: UniversityStudent, targetCompany: String)</text></g><!--class Student--><g id="elem_Student"><rect codeLine="54" fill="#F1F1F1" height="215.5898" id="Student" rx="2.5" ry="2.5" style="stroke:#181818;stroke-width:0.5;" width="319.0225" x="1245.12" y="171"/><ellipse cx="1376.2504" cy="187" fill="#A9DCDF" rx="11" ry="11" style="stroke:#181818;stroke-width:1.0;"/><path d="M1378.4379,188.7656 L1374.2972,188.7656 L1373.8754,189.7969 L1374.2972,189.7969 Q1374.9066,189.7969 1375.1722,190.0313 Q1375.4379,190.2656 1375.4379,190.6563 Q1375.4379,191.0313 1375.1722,191.2656 Q1374.9066,191.5 1374.2972,191.5 L1372.0004,191.5 Q1371.391,191.5 1371.141,191.2656 Q1370.8754,191.0313 1370.8754,190.6406 Q1370.8754,190.2656 1371.1566,190.0313 Q1371.4222,189.7813 1372.0472,189.7969 L1374.7191,183.1406 L1373.6097,183.1406 Q1373.0004,183.1406 1372.7347,182.9063 Q1372.4691,182.6719 1372.4691,182.2813 Q1372.4691,181.9063 1372.7347,181.6719 Q1373.0004,181.4375 1373.6097,181.4375 L1377.2816,181.4375 L1380.6722,189.7969 Q1381.266,189.7969 1381.4535,189.9375 Q1381.8441,190.2031 1381.8441,190.6563 Q1381.8441,191.0313 1381.5785,191.2656 Q1381.3285,191.5 1380.7191,191.5 L1378.4222,191.5 Q1377.8129,191.5 1377.5472,191.2656 Q1377.2816,191.0313 1377.2816,190.6406 Q1377.2816,190.2656 1377.5472,190.0313 Q1377.8129,189.7969 1378.4222,189.7969 L1378.8441,189.7969 L1378.4379,188.7656 Z M1377.7191,187.0625 L1376.3597,183.6875 L1374.9847,187.0625 L1377.7191,187.0625 Z " fill="#000000"/><text fill="#000000" font-family="sans-serif" font-size="14" font-style="italic" lengthAdjust="spacing" textLength="48.2617" x="1396.7504" y="192.7969">Student</text><line style="stroke:#181818;stroke-width:0.5;" x1="1246.12" x2="1563.1425" y1="203" y2="203"/><text fill="#000000" font-family="sans-serif" font-size="14" lengthAdjust="spacing" textLength="87.1582" x="1251.12" y="222.1074">#name: String</text><text fill="#000000" font-family="sans-serif" font-size="14" lengthAdjust="spacing" textLength="53.71" x="1251.12" y="240.7285">#age: int</text><text fill="#000000" font-family="sans-serif" font-size="14" lengthAdjust="spacing" textLength="95.7305" x="1251.12" y="259.3496">#gender: String</text><text fill="#000000" font-family="sans-serif" font-size="14" lengthAdjust="spacing" textLength="57.5859" x="1251.12" y="277.9707">#year: int</text><text fill="#000000" font-family="sans-serif" font-size="14" lengthAdjust="spacing" textLength="87.1445" x="1251.12" y="296.5918">#major: String</text><text fill="#000000" font-family="sans-serif" font-size="14" lengthAdjust="spacing" textLength="80.9648" x="1251.12" y="315.2129">#gpa: double</text><text fill="#000000" font-family="sans-serif" font-size="14" lengthAdjust="spacing" textLength="228.7783" x="1251.12" y="333.834">#roommatePreferences: List&lt;String&gt;</text><text fill="#000000" font-family="sans-serif" font-size="14" lengthAdjust="spacing" textLength="211.6748" x="1251.12" y="352.4551">#previousInternships: List&lt;String&gt;</text><line style="stroke:#181818;stroke-width:0.5;" x1="1246.12" x2="1563.1425" y1="359.9688" y2="359.9688"/><text fill="#000000" font-family="sans-serif" font-size="14" font-style="italic" lengthAdjust="spacing" textLength="307.0225" x="1251.12" y="379.0762">+calculateConnectionStrength(other: Student): int</text></g><!--class UniversityStudent--><g id="elem_UniversityStudent"><rect codeLine="66" fill="#F1F1F1" height="234.2109" id="UniversityStudent" rx="2.5" ry="2.5" style="stroke:#181818;stroke-width:0.5;" width="1025.9541" x="1104.62" y="447"/><ellipse cx="1558.4887" cy="463" fill="#ADD1B2" rx="11" ry="11" style="stroke:#181818;stroke-width:1.0;"/><path d="M1561.2543,458.875 Q1561.4105,458.6563 1561.598,458.5469 Q1561.7855,458.4375 1562.0043,458.4375 Q1562.3793,458.4375 1562.6137,458.7031 Q1562.848,458.9531 1562.848,459.5625 L1562.848,461.0156 Q1562.848,461.625 1562.6137,461.8906 Q1562.3793,462.1563 1562.0043,462.1563 Q1561.6605,462.1563 1561.4574,461.9531 Q1561.2543,461.7656 1561.1449,461.25 Q1561.098,460.8906 1560.9105,460.7031 Q1560.5824,460.3281 1559.973,460.1094 Q1559.3637,459.8906 1558.7387,459.8906 Q1557.973,459.8906 1557.3324,460.2188 Q1556.7074,460.5469 1556.2074,461.2969 Q1555.723,462.0469 1555.723,463.0781 L1555.723,464.1719 Q1555.723,465.4063 1556.6137,466.2344 Q1557.5043,467.0469 1559.098,467.0469 Q1560.0355,467.0469 1560.6918,466.7969 Q1561.0824,466.6406 1561.5043,466.2031 Q1561.7699,465.9375 1561.9105,465.8594 Q1562.0668,465.7813 1562.2699,465.7813 Q1562.598,465.7813 1562.848,466.0469 Q1563.1137,466.2969 1563.1137,466.6406 Q1563.1137,466.9844 1562.7699,467.3906 Q1562.2699,467.9688 1561.473,468.2969 Q1560.3949,468.75 1559.098,468.75 Q1557.5824,468.75 1556.3793,468.125 Q1555.3949,467.625 1554.7074,466.5625 Q1554.0199,465.4844 1554.0199,464.2031 L1554.0199,463.0469 Q1554.0199,461.7188 1554.6293,460.5781 Q1555.2543,459.4219 1556.348,458.8125 Q1557.4418,458.1875 1558.6762,458.1875 Q1559.4105,458.1875 1560.0512,458.3594 Q1560.7074,458.5156 1561.2543,458.875 Z " fill="#000000"/><text fill="#000000" font-family="sans-serif" font-size="14" lengthAdjust="spacing" textLength="109.7168" x="1578.9887" y="468.7969">UniversityStudent</text><line style="stroke:#181818;stroke-width:0.5;" x1="1105.62" x2="2129.5741" y1="479" y2="479"/><line style="stroke:#181818;stroke-width:0.5;" x1="1105.62" x2="2129.5741" y1="487" y2="487"/><text fill="#000000" font-family="sans-serif" font-size="14" lengthAdjust="spacing" textLength="1013.9541" x="1110.62" y="506.1074">+UniversityStudent(name: String, age: int, gender: String, year: int, major: String, gpa: double, roommatePreferences: List&lt;String&gt;, previousInternships: List&lt;String)</text><text fill="#000000" font-family="sans-serif" font-size="14" lengthAdjust="spacing" textLength="307.0225" x="1110.62" y="524.7285">+calculateConnectionStrength(other: Student): int</text><text fill="#000000" font-family="sans-serif" font-size="14" lengthAdjust="spacing" textLength="118.6582" x="1110.62" y="543.3496">+getName(): String</text><text fill="#000000" font-family="sans-serif" font-size="14" lengthAdjust="spacing" textLength="84.4375" x="1110.62" y="561.9707">+getAge(): int</text><text fill="#000000" font-family="sans-serif" font-size="14" lengthAdjust="spacing" textLength="128.0098" x="1110.62" y="580.5918">+getGender(): String</text><text fill="#000000" font-family="sans-serif" font-size="14" lengthAdjust="spacing" textLength="89.0996" x="1110.62" y="599.2129">+getYear(): int</text><text fill="#000000" font-family="sans-serif" font-size="14" lengthAdjust="spacing" textLength="94.5342" x="1110.62" y="617.834">+getMajor(): int</text><text fill="#000000" font-family="sans-serif" font-size="14" lengthAdjust="spacing" textLength="116.3477" x="1110.62" y="636.4551">+getGPA(): double</text><text fill="#000000" font-family="sans-serif" font-size="14" lengthAdjust="spacing" textLength="263.4023" x="1110.62" y="655.0762">+getRoommatePreferences(): List&lt;String&gt;</text><text fill="#000000" font-family="sans-serif" font-size="14" lengthAdjust="spacing" textLength="242.4023" x="1110.62" y="673.6973">+getPreviousInternships(): List&lt;String&gt;</text></g><!--class StudentGraph--><g id="elem_StudentGraph"><rect codeLine="79" fill="#F1F1F1" height="141.1055" id="StudentGraph" rx="2.5" ry="2.5" style="stroke:#181818;stroke-width:0.5;" width="483.1875" x="318.12" y="493.5"/><ellipse cx="511.8778" cy="509.5" fill="#ADD1B2" rx="11" ry="11" style="stroke:#181818;stroke-width:1.0;"/><path d="M514.6434,505.375 Q514.7997,505.1563 514.9872,505.0469 Q515.1747,504.9375 515.3934,504.9375 Q515.7684,504.9375 516.0028,505.2031 Q516.2372,505.4531 516.2372,506.0625 L516.2372,507.5156 Q516.2372,508.125 516.0028,508.3906 Q515.7684,508.6563 515.3934,508.6563 Q515.0497,508.6563 514.8466,508.4531 Q514.6434,508.2656 514.5341,507.75 Q514.4872,507.3906 514.2997,507.2031 Q513.9716,506.8281 513.3622,506.6094 Q512.7528,506.3906 512.1278,506.3906 Q511.3622,506.3906 510.7216,506.7188 Q510.0966,507.0469 509.5966,507.7969 Q509.1122,508.5469 509.1122,509.5781 L509.1122,510.6719 Q509.1122,511.9063 510.0028,512.7344 Q510.8934,513.5469 512.4872,513.5469 Q513.4247,513.5469 514.0809,513.2969 Q514.4716,513.1406 514.8934,512.7031 Q515.1591,512.4375 515.2997,512.3594 Q515.4559,512.2813 515.6591,512.2813 Q515.9872,512.2813 516.2372,512.5469 Q516.5028,512.7969 516.5028,513.1406 Q516.5028,513.4844 516.1591,513.8906 Q515.6591,514.4688 514.8622,514.7969 Q513.7841,515.25 512.4872,515.25 Q510.9716,515.25 509.7684,514.625 Q508.7841,514.125 508.0966,513.0625 Q507.4091,511.9844 507.4091,510.7031 L507.4091,509.5469 Q507.4091,508.2188 508.0184,507.0781 Q508.6434,505.9219 509.7372,505.3125 Q510.8309,504.6875 512.0653,504.6875 Q512.7997,504.6875 513.4403,504.8594 Q514.0966,505.0156 514.6434,505.375 Z " fill="#000000"/><text fill="#000000" font-family="sans-serif" font-size="14" lengthAdjust="spacing" textLength="87.1719" x="532.3778" y="515.2969">StudentGraph</text><line style="stroke:#181818;stroke-width:0.5;" x1="319.12" x2="800.3075" y1="525.5" y2="525.5"/><text fill="#000000" font-family="sans-serif" font-size="14" lengthAdjust="spacing" textLength="367.3359" x="324.12" y="544.6074">-graph: Map&lt;UniversityStudent, List&lt;StudentGraphEdge&gt;&gt;</text><line style="stroke:#181818;stroke-width:0.5;" x1="319.12" x2="800.3075" y1="552.1211" y2="552.1211"/><text fill="#000000" font-family="sans-serif" font-size="14" lengthAdjust="spacing" textLength="313.2295" x="324.12" y="571.2285">+StudentGraph(students: List&lt;UniversityStudent&gt;)</text><text fill="#000000" font-family="sans-serif" font-size="14" lengthAdjust="spacing" textLength="452.5254" x="324.12" y="589.8496">+getEdges(student: UniversityStudent): Map&lt;UniversityStudent, Integer&gt;</text><text fill="#000000" font-family="sans-serif" font-size="14" lengthAdjust="spacing" textLength="471.1875" x="324.12" y="608.4707">+addEdge(start: UniversityStudent, end: UniversityStudent, weight: int): void</text><text fill="#000000" font-family="sans-serif" font-size="14" lengthAdjust="spacing" textLength="286.002" x="324.12" y="627.0918">+addStudent(student: UniversityStudent): void</text></g><!--class StudentGraphEdge--><g id="elem_StudentGraphEdge"><rect codeLine="86" fill="#F1F1F1" height="141.1055" id="StudentGraphEdge" rx="2.5" ry="2.5" style="stroke:#181818;stroke-width:0.5;" width="383.6016" x="367.62" y="208.5"/><ellipse cx="495.2367" cy="224.5" fill="#ADD1B2" rx="11" ry="11" style="stroke:#181818;stroke-width:1.0;"/><path d="M498.0023,220.375 Q498.1586,220.1563 498.3461,220.0469 Q498.5336,219.9375 498.7523,219.9375 Q499.1273,219.9375 499.3617,220.2031 Q499.5961,220.4531 499.5961,221.0625 L499.5961,222.5156 Q499.5961,223.125 499.3617,223.3906 Q499.1273,223.6563 498.7523,223.6563 Q498.4086,223.6563 498.2054,223.4531 Q498.0023,223.2656 497.8929,222.75 Q497.8461,222.3906 497.6586,222.2031 Q497.3304,221.8281 496.7211,221.6094 Q496.1117,221.3906 495.4867,221.3906 Q494.7211,221.3906 494.0804,221.7188 Q493.4554,222.0469 492.9554,222.7969 Q492.4711,223.5469 492.4711,224.5781 L492.4711,225.6719 Q492.4711,226.9063 493.3617,227.7344 Q494.2523,228.5469 495.8461,228.5469 Q496.7836,228.5469 497.4398,228.2969 Q497.8304,228.1406 498.2523,227.7031 Q498.5179,227.4375 498.6586,227.3594 Q498.8148,227.2813 499.0179,227.2813 Q499.3461,227.2813 499.5961,227.5469 Q499.8617,227.7969 499.8617,228.1406 Q499.8617,228.4844 499.5179,228.8906 Q499.0179,229.4688 498.2211,229.7969 Q497.1429,230.25 495.8461,230.25 Q494.3304,230.25 493.1273,229.625 Q492.1429,229.125 491.4554,228.0625 Q490.7679,226.9844 490.7679,225.7031 L490.7679,224.5469 Q490.7679,223.2188 491.3773,222.0781 Q492.0023,220.9219 493.0961,220.3125 Q494.1898,219.6875 495.4242,219.6875 Q496.1586,219.6875 496.7992,219.8594 Q497.4554,220.0156 498.0023,220.375 Z " fill="#000000"/><text fill="#000000" font-family="sans-serif" font-size="14" lengthAdjust="spacing" textLength="119.8682" x="515.7367" y="230.2969">StudentGraphEdge</text><line style="stroke:#181818;stroke-width:0.5;" x1="368.62" x2="750.2216" y1="240.5" y2="240.5"/><text fill="#000000" font-family="sans-serif" font-size="14" lengthAdjust="spacing" textLength="67.6963" x="373.62" y="259.6074">-weight: int</text><text fill="#000000" font-family="sans-serif" font-size="14" lengthAdjust="spacing" textLength="168.082" x="373.62" y="278.2285">-UniversityStudent: student</text><line style="stroke:#181818;stroke-width:0.5;" x1="368.62" x2="750.2216" y1="285.7422" y2="285.7422"/><text fill="#000000" font-family="sans-serif" font-size="14" lengthAdjust="spacing" textLength="371.6016" x="373.62" y="304.8496">+StudentGraphEdge(student: UniversityStudent, weight: int)</text><text fill="#000000" font-family="sans-serif" font-size="14" lengthAdjust="spacing" textLength="103.0996" x="373.62" y="323.4707">+getWeight(): int</text><text fill="#000000" font-family="sans-serif" font-size="14" lengthAdjust="spacing" textLength="202.7197" x="373.62" y="342.0918">+getStudent(): UniversityStudent</text></g><!--reverse link Runnable to ChatThread--><g id="link_Runnable_ChatThread"><path d="M2072.975,88.861 C2150.405,124.701 2291.72,190.11 2391.72,236.39 " fill="none" id="Runnable-backto-ChatThread" style="stroke:#181818;stroke-width:1.0;stroke-dasharray:7.0,7.0;"/><polygon fill="none" points="2056.64,81.3,2070.4547,94.306,2075.4953,83.416,2056.64,81.3" style="stroke:#181818;stroke-width:1.0;"/></g><!--reverse link Runnable to FriendRequestThread--><g id="link_Runnable_FriendRequestThread"><path d="M1994.2934,99.9934 C1981.2834,131.8434 1964.32,173.41 1946.15,217.91 " fill="none" id="Runnable-backto-FriendRequestThread" style="stroke:#181818;stroke-width:1.0;stroke-dasharray:7.0,7.0;"/><polygon fill="none" points="2001.1,83.33,1988.7389,97.7245,1999.8478,102.2623,2001.1,83.33" style="stroke:#181818;stroke-width:1.0;"/></g><!--reverse link Student to UniversityStudent--><g id="link_Student_UniversityStudent"><path d="M1496.2725,401.7731 C1510.8625,421.1631 1515.32,427.08 1530.09,446.71 " fill="none" id="Student-backto-UniversityStudent" style="stroke:#181818;stroke-width:1.0;"/><polygon fill="none" points="1485.45,387.39,1491.4782,405.3806,1501.0669,398.1656,1485.45,387.39" style="stroke:#181818;stroke-width:1.0;"/></g><!--reverse link Student to StudentGraph--><g id="link_Student_StudentGraph"><path codeLine="94" d="M1234.193,384.3014 C1228.373,387.0414 1233.41,384.55 1227.62,387 C1091.1,444.83 930.65,487.85 801.23,516.88 " fill="none" id="Student-backto-StudentGraph" style="stroke:#181818;stroke-width:1.0;"/><polygon fill="none" points="1245.05,379.19,1237.9177,378.1267,1234.193,384.3014,1241.3253,385.3647,1245.05,379.19" style="stroke:#181818;stroke-width:1.0;"/><text fill="#000000" font-family="sans-serif" font-size="13" lengthAdjust="spacing" textLength="19.5127" x="1217.345" y="380.9642">1..*</text></g><!--link ReferralPathFinder to StudentGraph--><g id="link_ReferralPathFinder_StudentGraph"><path codeLine="96" d="M919.37,331.09 C848.99,376.46 750.5329,439.9289 672.6029,490.1689 " fill="none" id="ReferralPathFinder-to-StudentGraph" style="stroke:#181818;stroke-width:1.0;"/><polygon fill="#181818" points="667.56,493.42,677.2917,491.9053,671.7624,490.7108,672.957,485.1815,667.56,493.42" style="stroke:#181818;stroke-width:1.0;"/></g><!--link ReferralPathFinder to UniversityStudent--><g id="link_ReferralPathFinder_UniversityStudent"><path codeLine="97" d="M1107.11,331.05 C1145.17,348.86 1188.24,368.92 1227.62,387 C1270.06,406.49 1309.7137,424.5563 1353.6437,444.4363 " fill="none" id="ReferralPathFinder-to-UniversityStudent" style="stroke:#181818;stroke-width:1.0;"/><polygon fill="#181818" points="1359.11,446.91,1352.5597,439.5552,1354.5547,444.8486,1349.2614,446.8436,1359.11,446.91" style="stroke:#181818;stroke-width:1.0;"/></g><!--link PodFormation to StudentGraph--><g id="link_PodFormation_StudentGraph"><path codeLine="99" d="M283.06,340.02 C338.7,384.88 410.2291,442.554 468.5591,489.584 " fill="none" id="PodFormation-to-StudentGraph" style="stroke:#181818;stroke-width:1.0;"/><polygon fill="#181818" points="473.23,493.35,468.7344,484.5871,469.3376,490.2117,463.713,490.8149,473.23,493.35" style="stroke:#181818;stroke-width:1.0;"/></g><!--link GaleShapley to UniversityStudent--><g id="link_GaleShapley_UniversityStudent"><path codeLine="101" d="M1629.12,740.77 C1630.4,722.93 1631.0428,708.1 1631.1028,687.16 " fill="none" id="GaleShapley-to-UniversityStudent" style="stroke:#181818;stroke-width:1.0;"/><polygon fill="#181818" points="1631.12,681.16,1627.0942,690.1485,1631.1057,686.16,1635.0942,690.1714,1631.12,681.16" style="stroke:#181818;stroke-width:1.0;"/></g><!--link UniversityStudent to GaleShapley--><g id="link_UniversityStudent_GaleShapley"><path codeLine="106" d="M1604.87,681.16 C1604.92,702.1 1605.144,716.9438 1606.354,734.7838 " fill="none" id="UniversityStudent-to-GaleShapley" style="stroke:#181818;stroke-width:1.0;"/><polygon fill="#181818" points="1606.76,740.77,1610.1418,731.52,1606.4217,735.7815,1602.1601,732.0613,1606.76,740.77" style="stroke:#181818;stroke-width:1.0;"/></g><!--link FriendRequestThread to UniversityStudent--><g id="link_FriendRequestThread_UniversityStudent"><path codeLine="103" d="M1857.15,340.02 C1823.77,371.09 1786.2415,406.0217 1746.8415,442.7017 " fill="none" id="FriendRequestThread-to-UniversityStudent" style="stroke:#181818;stroke-width:1.0;"/><polygon fill="#181818" points="1742.45,446.79,1751.7628,443.5852,1746.1096,443.383,1746.3117,437.7298,1742.45,446.79" style="stroke:#181818;stroke-width:1.0;"/></g><!--reverse link UniversityStudent to DataParser--><g id="link_UniversityStudent_DataParser"><path codeLine="105" d="M1886.9848,686.0805 C1951.0448,714.8805 2003.66,738.53 2050.2,759.45 " fill="none" id="UniversityStudent-backto-DataParser" style="stroke:#181818;stroke-width:1.0;"/><polygon fill="none" points="1876.04,681.16,1879.8722,687.2685,1886.9848,686.0805,1883.1526,679.972,1876.04,681.16" style="stroke:#181818;stroke-width:1.0;"/><text fill="#000000" font-family="sans-serif" font-size="13" lengthAdjust="spacing" textLength="19.5127" x="1873.0043" y="703.241">0..*</text></g><!--link ChatThread to UniversityStudent--><g id="link_ChatThread_UniversityStudent"><path codeLine="108" d="M2372.56,321.51 C2317.88,341.93 2250.51,366.49 2189.62,387 C2130.05,407.06 2072.4144,425.6726 2010.3744,445.1526 " fill="none" id="ChatThread-to-UniversityStudent" style="stroke:#181818;stroke-width:1.0;"/><polygon fill="#181818" points="2004.65,446.95,2014.4349,448.0702,2009.4204,445.4521,2012.0384,440.4376,2004.65,446.95" style="stroke:#181818;stroke-width:1.0;"/></g><!--link ChatPair to ChatThread--><g id="link_ChatPair_ChatThread"><path codeLine="109" d="M2693.68,111.11 C2645.22,149.24 2589.2792,193.2678 2543.9892,228.9178 " fill="none" id="ChatPair-to-ChatThread" style="stroke:#181818;stroke-width:1.0;"/><polygon fill="#181818" points="2534.56,236.34,2541.7487,235.772,2543.9892,228.9178,2536.8005,229.4858,2534.56,236.34" style="stroke:#181818;stroke-width:1.0;"/><text fill="#000000" font-family="sans-serif" font-size="13" lengthAdjust="spacing" textLength="19.5127" x="2665.1534" y="132.9314">0..*</text></g><!--link Chat to ChatThread--><g id="link_Chat_ChatThread"><path codeLine="110" d="M2412.72,111.11 C2428.46,149.24 2445.1202,189.5983 2459.8402,225.2483 " fill="none" id="Chat-to-ChatThread" style="stroke:#181818;stroke-width:1.0;"/><polygon fill="#181818" points="2464.42,236.34,2465.8273,229.2676,2459.8402,225.2483,2458.4329,232.3208,2464.42,236.34" style="stroke:#181818;stroke-width:1.0;"/><text fill="#000000" font-family="sans-serif" font-size="13" lengthAdjust="spacing" textLength="19.5127" x="2395.2208" y="132.9314">0..*</text></g><!--link StudentGraphEdge to StudentGraph--><g id="link_StudentGraphEdge_StudentGraph"><path codeLine="112" d="M559.62,349.59 C559.62,393.29 559.62,437.45 559.62,481.19 " fill="none" id="StudentGraphEdge-to-StudentGraph" style="stroke:#181818;stroke-width:1.0;"/><polygon fill="#181818" points="559.62,493.19,563.62,487.19,559.62,481.19,555.62,487.19,559.62,493.19" style="stroke:#181818;stroke-width:1.0;"/><text fill="#000000" font-family="sans-serif" font-size="13" lengthAdjust="spacing" textLength="19.5127" x="539.6873" y="371.784">0..*</text></g><!--reverse link Main to UniversityStudent--><g id="link_Main_UniversityStudent"><path codeLine="114" d="M702.1672,64.2336 C929.7572,74.7436 1519.73,107.76 1581.62,171 C1651.18,242.06 1653.29,358.98 1642.17,446.66 " fill="none" id="Main-backto-UniversityStudent" style="stroke:#181818;stroke-width:1.0;"/><polygon fill="none" points="690.18,63.68,695.9891,67.9525,702.1672,64.2336,696.3581,59.961,690.18,63.68" style="stroke:#181818;stroke-width:1.0;"/></g><!--reverse link Main to StudentGraph--><g id="link_Main_StudentGraph"><path codeLine="115" d="M505.1414,65.8676 C368.0114,75.8076 122.45,102.44 66.62,171 C6,245.44 11.31,308.53 66.62,387 C124.28,468.81 223.56,512.8 317.98,536.37 " fill="none" id="Main-backto-StudentGraph" style="stroke:#181818;stroke-width:1.0;"/><polygon fill="none" points="517.11,65,510.8365,61.4442,505.1414,65.8676,511.4149,69.4233,517.11,65" style="stroke:#181818;stroke-width:1.0;"/></g><!--reverse link Main to PodFormation--><g id="link_Main_PodFormation"><path codeLine="116" d="M505.9065,96.3172 C455.5965,116.2872 402.96,139.71 349.62,171 C326.3,184.68 302.35,201.6 280.96,217.92 " fill="none" id="Main-backto-PodFormation" style="stroke:#181818;stroke-width:1.0;"/><polygon fill="none" points="517.06,91.89,510.0075,90.3858,505.9065,96.3172,512.959,97.8214,517.06,91.89" style="stroke:#181818;stroke-width:1.0;"/></g><!--reverse link Main to ReferralPathFinder--><g id="link_Main_ReferralPathFinder"><path codeLine="117" d="M673.2665,98.4377 C737.6165,133.9477 830.84,185.4 906.01,226.89 " fill="none" id="Main-backto-ReferralPathFinder" style="stroke:#181818;stroke-width:1.0;"/><polygon fill="none" points="662.76,92.64,666.0807,99.041,673.2665,98.4377,669.9458,92.0367,662.76,92.64" style="stroke:#181818;stroke-width:1.0;"/></g><!--SRC=[fLTDJzmm4BtdLrXmQ1OsGA-h2WbHG4YbNIsjgghgOJOP4hU9dTeEBKNyzzhP97RMpj8FJZ0pVlFcpNXYNXHArN9nV5oNm5HJbKSfhuxJ4gHCCWgvW2gAv3VAQj2_ajPnffIWwqRXTShPBVs5v2IAMW-v0Se8UOo8_ZaaZrA1ekaJgRGv1f7B1RdLPrd- -SjiGUuvpQAd_kXv0Ufz8H0oGgkwn0gPacJLC0Rh4WTC6nPBP1cA1Vd0w3qAITN3hMeoVMnE1APeZ45dXL92ZZsNMOSi6XPRLfRK4gZeqYTaCcVdtv7OAS10_YFzsOZRmAiMz1uKabGRRpRrQR7VKAbURQeyTTB7VScGPLrml2tATdjUWu8b28d2Rszjx1q_6T_H4XbKBbJBmolbbAX2y1-INB-x-9bYhIXdDk6be5gW5NvlK3u_68bbSzSUrDNVGFqg8Eu4cLwWGDv_RfK_M5lAWS1DFXb347uTmbsGDUSbWgFM5PHuMu2Mvy5NH71ULNewpDXDw-9Buh6LakPirQ79M7OjdspmTDKMvF_gNlBiaWkDf6V7NWQUNGce2pE1xSdsB-kqDyDw-s9Tm3ZtKVgctkaW7IjZZMTsu8BGbk7urgpm3eM0SWcgkAHcY0QIedDDCJqC7Dv9Y9gfjITqTq2eeBZQaQCwvrKDxC6kGSqQrb89IDLcqVTvEixxnBtMdQdT6RJRRliaxsxAAEO1GRX15Npbsp5vhGSXuus-qfrbcDfMAMHfSAFjwzM7zvGtyfef54mMj0vlliU-k2UIGfasfSO-vunXQdgjOv7bMZQkYaq1_SmPtaD3FJK9_bJc_cvfTUX7ngvwyq6u-PPcSolNVApKt1Lf_hm-ysUbwMVdh_NO7DD3z5RNP9QRqylMVfQtvb7iLLjdAFgJhjWBlp6r-o3BCsDp9gKrhtmnubbm37JmqfV52nuwxjwruV9szt3N5yOzTv7bE7nWNCSVh51Bsw0CIpUy7oS8cK9p5AVsis-mTcm8tQcW_GVIl52ZNJT0zcE-a-3eTRKjqI2lawQpU5WB8aVFgcsi7JJ6PLXzFxPMR-BwkcQXDvqUa_xYxxqyEZhO8pn9niiy2dm4akHq73GHuoUCHbyy3oTo7m8J2A6NrKIel-xsJeOgxPCm46S07IvHvBplmyc6jtQN8aaEdDT-wvvmHTuWEN5ZUTf_K0nvF__W6fqOhAxkrkhtBVeD]--></g></svg>